<svg width="132" height="144" viewBox="0 0 132 144" fill="none" xmlns="http://www.w3.org/2000/svg">
    <path d="M126 143.934L131.716 133.901L120.169 133.967L126 143.934ZM6.71719e-06 2.93359C0.97817 2.93359 1.96282 2.94317 2.95339 2.96269L2.9928 0.963079C1.98902 0.943296 0.991223 0.933587 -6.71719e-06 0.933594L6.71719e-06 2.93359ZM8.88513 3.19729C10.8414 3.31362 12.8155 3.46973 14.8032 3.66817L15.0019 1.67806C12.9871 1.47692 10.9863 1.31871 9.00384 1.20082L8.88513 3.19729ZM20.6952 4.37774C22.6377 4.65219 24.5892 4.96849 26.5457 5.32893L26.9081 3.36203C24.9235 2.99643 22.9446 2.67568 20.9749 2.39741L20.6952 4.37774ZM32.3508 6.52745C34.2661 6.96632 36.1828 7.44934 38.0973 7.97864L38.6302 6.05096C36.6865 5.51358 34.7411 5.02331 32.7975 4.57797L32.3508 6.52745ZM43.771 9.68794C45.6395 10.2984 47.5026 10.9552 49.3571 11.6605L50.068 9.79116C48.1832 9.07432 46.2901 8.4069 44.3921 7.78683L43.771 9.68794ZM54.8394 13.9009C56.639 14.6889 58.4272 15.5255 60.2009 16.4124L61.0954 14.6236C59.2907 13.7212 57.4717 12.8702 55.6416 12.0689L54.8394 13.9009ZM65.424 19.1969C67.1304 20.1653 68.8202 21.1838 70.4903 22.2542L71.5695 20.5704C69.8686 19.4802 68.1482 18.4432 66.411 17.4575L65.424 19.1969ZM75.3817 25.5817C76.9701 26.7276 78.5372 27.9245 80.0804 29.1743L81.3391 27.62C79.7667 26.3466 78.17 25.127 76.5517 23.9597L75.3817 25.5817ZM84.57 33.024C86.0176 34.3377 87.4403 35.7027 88.8356 37.1203L90.261 35.7173C88.8391 34.2727 87.3893 32.8818 85.9141 31.543L84.57 33.024ZM92.8648 41.4503C94.154 42.9159 95.4158 44.4318 96.6479 45.9994L98.2203 44.7634C96.9653 43.1668 95.68 41.6226 94.3665 40.1293L92.8648 41.4503ZM100.178 50.7517C101.299 52.3492 102.392 53.9953 103.453 55.6912L105.148 54.6303C104.068 52.9047 102.957 51.2292 101.815 49.6028L100.178 50.7517ZM106.465 60.7917C107.411 62.4894 108.327 64.2329 109.212 66.0231L111.005 65.1367C110.105 63.3174 109.174 61.5451 108.212 59.8186L106.465 60.7917ZM111.707 71.3852C112.488 73.1689 113.239 74.9956 113.959 76.8661L115.825 76.1473C115.094 74.2493 114.332 72.395 113.54 70.5836L111.707 71.3852ZM115.975 82.4572C116.598 84.3051 117.192 86.1929 117.757 88.1212L119.676 87.5593C119.104 85.6055 118.502 83.6922 117.871 81.8185L115.975 82.4572ZM119.308 93.8224C119.785 95.7129 120.234 97.64 120.655 99.6044L122.611 99.1854C122.185 97.198 121.73 95.2475 121.248 93.3335L119.308 93.8224ZM121.806 105.47C122.148 107.377 122.463 109.317 122.752 111.291L124.731 111.001C124.439 109.007 124.12 107.046 123.775 105.117L121.806 105.47ZM123.524 117.182C123.75 119.133 123.951 121.115 124.126 123.129L126.119 122.956C125.942 120.923 125.739 118.922 125.51 116.952L123.524 117.182ZM124.56 129.015C124.679 130.975 124.774 132.965 124.845 134.983L126.844 134.913C126.772 132.878 126.676 130.871 126.556 128.894L124.56 129.015Z" fill="#2F80ED"/>
</svg>
