<svg width="28" height="32" viewBox="0 0 28 32" fill="none" xmlns="http://www.w3.org/2000/svg">
    <path d="M18.4037 15.3473C18.4037 14.8528 18.2182 14.4818 17.9091 14.1109C17.6 13.8018 17.2291 13.6164 16.7964 13.6164C16.3018 13.6164 15.9309 13.8018 15.6218 14.1109C15.3127 14.4818 15.189 14.8528 15.189 15.3473C15.189 15.8419 15.3127 16.2746 15.6218 16.6456C15.9309 17.0165 16.3018 17.1401 16.7964 17.1401C17.2291 17.1401 17.6 17.0165 17.9091 16.6456C18.2182 16.2746 18.4037 15.8419 18.4037 15.3473ZM11.047 13.6164C11.4798 13.6164 11.8507 13.8018 12.1598 14.1109C12.4689 14.4818 12.6544 14.8528 12.6544 15.3473C12.6544 15.8419 12.4689 16.2746 12.1598 16.6456C11.8507 17.0165 11.4798 17.1401 11.047 17.1401C10.5525 17.1401 10.1816 17.0165 9.87245 16.6456C9.56335 16.2746 9.43971 15.8419 9.43971 15.3473C9.43971 14.8528 9.56335 14.4818 9.87245 14.1109C10.1816 13.8018 10.5525 13.6164 11.047 13.6164ZM27.7386 3.60141C27.7386 2.73592 27.3677 1.93225 26.7495 1.31404C26.1313 0.695834 25.3894 0.32491 24.524 0.32491H3.25764C2.39215 0.32491 1.58849 0.695834 0.970279 1.31404C0.352072 1.93225 0.0429688 2.73592 0.0429688 3.60141V24.9914C0.0429688 25.9187 0.352072 26.7223 0.970279 27.3405C1.58849 27.9587 2.39215 28.2679 3.25764 28.2679H21.2475L20.382 25.3005L21.5566 26.4132C23.3494 28.0824 24.8949 29.5043 26.1931 30.617L27.7386 31.9771V3.60141ZM23.2257 18.562L22.9784 18.9329C22.7312 19.242 22.4221 19.4893 22.1129 19.7366C21.6184 20.1075 21.1238 20.4166 20.6293 20.5403C19.8874 20.8494 19.1456 20.973 18.4037 20.973L17.3528 19.7366C17.971 19.5511 18.5273 19.3039 19.0219 18.9329C19.331 18.7475 19.6401 18.5002 19.9492 18.1911L20.1965 17.8202C19.5783 18.2529 19.0219 18.562 18.4037 18.7475C16.7345 19.4893 15.0036 19.7366 13.149 19.613C11.418 19.4893 9.87245 18.9948 8.5124 18.1911L7.83237 17.8202L8.14148 18.1911C8.38876 18.4384 8.63604 18.6856 9.00697 18.9329C9.50153 19.3039 9.9961 19.5511 10.6143 19.6748L9.56335 20.973C8.75968 20.973 8.01783 20.8494 7.33781 20.5403C6.78142 20.4166 6.28686 20.1075 5.85411 19.7366C5.48319 19.4893 5.2359 19.242 4.98862 18.9329L4.74134 18.562C4.74134 17.0783 4.9268 15.5328 5.35955 13.9255C5.60683 12.8127 5.91593 11.6999 6.4105 10.649L7.0287 9.35073C7.64691 8.85616 8.38876 8.48524 9.19243 8.17613C9.68699 7.99067 10.2434 7.86703 10.7998 7.74339L11.4798 7.68157L11.6034 7.86703C10.7379 8.11431 9.9961 8.42342 9.25425 8.79434C8.75968 9.04162 8.26512 9.35073 7.89419 9.59801L7.46145 9.96893L8.38876 9.47437C10.2434 8.73252 12.2216 8.3616 14.3235 8.3616C16.4254 8.42342 18.3419 8.9798 20.1965 9.96893C19.9492 9.78347 19.6401 9.53619 19.2692 9.28891C18.4037 8.79434 17.4146 8.29978 16.3018 7.92885L16.4873 7.68157C16.8582 7.68157 17.2909 7.74339 17.8473 7.86703C18.9601 8.17613 19.9492 8.6707 20.9384 9.35073C21.3093 10.0926 21.6802 10.9581 22.1129 12.0708C22.8548 14.2964 23.2257 16.4601 23.2257 18.562Z" fill="white"/>
</svg>
