<svg xmlns="http://www.w3.org/2000/svg" width="53.969" height="71.575" viewBox="0 0 53.969 71.575">
  <g id="Group_1" data-name="Group 1" transform="translate(273.599 -386.213)">
    <path id="Path_1" data-name="Path 1" d="M39.893,25.765,53.969,45.758V19.951L39.893,0Z" transform="translate(-273.599 386.213)" fill="#62a7e9" fill-rule="evenodd"/>
    <path id="Path_2" data-name="Path 2" d="M14.077,25.859l39.893,19.9L39.893,25.816Z" transform="translate(-273.599 386.213)" fill="#a9c5df" fill-rule="evenodd"/>
    <path id="Path_3" data-name="Path 3" d="M39.893,0H14.077V25.816H39.893Z" transform="translate(-273.599 386.213)" fill="#1d67ac"/>
    <path id="Path_4" data-name="Path 4" d="M14.077,0V25.816L39.893,0Z" transform="translate(-273.599 386.213)" fill="#4189cc" fill-rule="evenodd"/>
    <path id="Path_5" data-name="Path 5" d="M14.077,51.581,0,71.574V45.766L14.077,25.816Z" transform="translate(-273.599 386.213)" fill="#62a7e9" fill-rule="evenodd"/>
    <path id="Path_6" data-name="Path 6" d="M39.893,51.667,0,71.575,14.077,51.624Z" transform="translate(-273.599 386.213)" fill="#4189cc" fill-rule="evenodd"/>
    <path id="Path_7" data-name="Path 7" d="M39.893,25.816H14.077V51.632H39.893Z" transform="translate(-273.599 386.213)" fill="#1d67ac"/>
    <path id="Path_8" data-name="Path 8" d="M39.893,25.816V51.623L14.077,25.816Z" transform="translate(-273.599 386.213)" fill="#4189cc" fill-rule="evenodd"/>
  </g>
</svg>
