<svg width="158" height="146" viewBox="0 0 158 146" fill="none" xmlns="http://www.w3.org/2000/svg">
    <path d="M152 145.934L157.706 135.895L146.16 135.972L152 145.934ZM5.64663e-06 2.93359C0.973946 2.93359 1.95321 2.94019 2.93741 2.95361L2.96467 0.953794C1.97134 0.940254 0.982983 0.933588 -5.64663e-06 0.933594L5.64663e-06 2.93359ZM8.84379 3.11518C10.7955 3.19541 12.763 3.30298 14.7434 3.43938L14.8809 1.44411C12.8818 1.30643 10.8959 1.19785 8.92594 1.11686L8.84379 3.11518ZM20.6316 3.92786C22.5801 4.11719 24.5382 4.33517 26.5031 4.58317L26.7535 2.59891C24.7693 2.34848 22.7923 2.12838 20.825 1.93723L20.6316 3.92786ZM32.3525 5.40866C34.2897 5.71133 36.2309 6.04413 38.1737 6.40834L38.5422 4.44258C36.5792 4.07457 34.618 3.73836 32.6612 3.43263L32.3525 5.40866ZM43.9583 7.58635C45.8736 8.00794 47.788 8.46127 49.6991 8.94754L50.1923 7.0093C48.2598 6.51757 46.3243 6.05926 44.3883 5.63311L43.9583 7.58635ZM55.3914 10.498C57.276 11.0459 59.155 11.6274 61.0262 12.2435L61.6517 10.3438C59.7578 9.7202 57.8564 9.13185 55.9498 8.57755L55.3914 10.498ZM66.5936 14.1897C68.4342 14.8714 70.2648 15.5886 72.0831 16.3422L72.8489 14.4947C71.0066 13.731 69.1523 13.0046 67.2883 12.3142L66.5936 14.1897ZM77.483 18.7067C79.2641 19.5296 81.0309 20.3897 82.7811 21.2882L83.6945 19.5089C81.9191 18.5975 80.1275 17.7253 78.3218 16.8911L77.483 18.7067ZM87.9639 24.0908C89.6667 25.0599 91.351 26.0681 93.0147 27.1162L94.0808 25.4241C92.3914 24.3597 90.6815 23.3362 88.9532 22.3526L87.9639 24.0908ZM97.921 30.3676C99.5263 31.4861 101.109 32.6449 102.668 33.8453L103.888 32.2608C102.304 31.0407 100.695 29.863 99.0644 28.7266L97.921 30.3676ZM107.24 37.5482C108.728 38.8148 110.19 40.1229 111.624 41.4735L112.995 40.0175C111.536 38.6437 110.05 37.3134 108.537 36.0254L107.24 37.5482ZM115.806 45.6169C117.156 47.0244 118.477 48.4738 119.768 49.9661L121.281 48.6575C119.967 47.1391 118.623 45.6645 117.249 44.2325L115.806 45.6169ZM123.496 54.506C124.691 56.0398 125.856 57.6151 126.988 59.2329L128.627 58.0861C127.475 56.4402 126.29 54.8374 125.074 53.2768L123.496 54.506ZM130.238 64.1365C131.272 65.7856 132.274 67.4754 133.243 69.2069L134.988 68.2303C134.003 66.4699 132.984 64.7514 131.932 63.0741L130.238 64.1365ZM135.99 74.4112C136.852 76.1444 137.682 77.9163 138.478 79.7279L140.309 78.9227C139.5 77.0825 138.657 75.2821 137.781 73.5207L135.99 74.4112ZM140.724 85.1689C141.426 86.9849 142.095 88.8382 142.732 90.7294L144.627 90.0914C143.981 88.1726 143.302 86.2917 142.589 84.448L140.724 85.1689ZM144.487 96.3349C145.027 98.1932 145.536 100.086 146.014 102.014L147.955 101.533C147.471 99.5797 146.955 97.6611 146.408 95.777L144.487 96.3349ZM147.325 107.788C147.717 109.682 148.08 111.607 148.412 113.566L150.384 113.231C150.048 111.249 149.681 109.3 149.283 107.382L147.325 107.788ZM149.297 119.387C149.558 121.325 149.79 123.294 149.992 125.294L151.982 125.092C151.777 123.071 151.543 121.081 151.279 119.12L149.297 119.387ZM150.491 131.123C150.628 133.069 150.738 135.042 150.82 137.043L152.819 136.961C152.736 134.941 152.625 132.948 152.486 130.983L150.491 131.123Z" fill="#ED1E79"/>
</svg>
