<svg width="29" height="24" viewBox="0 0 29 24" fill="none" xmlns="http://www.w3.org/2000/svg">
    <path d="M27.9522 2.69149C28.0758 1.826 28.014 1.26962 27.6431 0.898695C27.2722 0.527771 26.7776 0.46595 26.1594 0.651412L1.61659 10.11C0.751104 10.4809 0.318359 10.8518 0.318359 11.2227C0.256539 11.6555 0.565642 11.9646 1.30749 12.1501L7.6132 14.1283L22.2029 4.91704C22.3883 4.7934 22.5738 4.73158 22.7593 4.73158C22.9447 4.73158 23.0684 4.73158 23.1302 4.85522C23.192 4.97886 23.1302 5.04068 23.0065 5.16432L11.1988 15.8593L10.7042 22.3505C11.0133 22.3505 11.2606 22.2886 11.5079 22.165C11.6315 22.1032 11.7552 21.9795 12.0025 21.7323L15.0935 18.7649L21.461 23.4632C22.0174 23.8342 22.512 23.896 22.8829 23.7105C23.2538 23.5251 23.5629 23.0923 23.7484 22.3505L27.9522 2.69149Z" fill="white"/>
</svg>
