<svg width="33" height="27" viewBox="0 0 33 27" fill="none" xmlns="http://www.w3.org/2000/svg">
    <path d="M28.8972 6.96799C30.1336 6.04068 31.2464 4.92791 32.1737 3.56785C30.9373 4.12424 29.7008 4.49516 28.4644 4.6188C29.8245 3.75331 30.8136 2.57872 31.3082 1.03321C30.0099 1.77505 28.6499 2.33144 27.1662 2.57872C26.548 1.96052 25.8061 1.46595 25.0025 1.09503C24.1988 0.724102 23.3333 0.53864 22.406 0.53864C21.2314 0.53864 20.1805 0.847743 19.1913 1.40413C18.2022 2.02234 17.3985 2.826 16.8421 3.81514C16.2239 4.80427 15.9767 5.91704 15.9767 7.02981C15.9767 7.52438 15.9767 8.01894 16.1003 8.51351C13.442 8.38986 10.9692 7.77166 8.61999 6.53524C6.27081 5.36065 4.35437 3.75331 2.74703 1.71323C2.12882 2.76418 1.81972 3.87696 1.81972 4.98973C1.81972 6.1025 2.067 7.15345 2.62339 8.08076C3.11795 9.06989 3.8598 9.81174 4.72529 10.4299C3.67434 10.4299 2.68521 10.1208 1.81972 9.56446V9.6881C1.81972 11.2336 2.31428 12.5937 3.30341 13.7683C4.29255 15.0047 5.52896 15.7465 7.01265 16.0556C6.39445 16.1793 5.83806 16.2411 5.28168 16.2411C4.91075 16.2411 4.47801 16.2411 4.10708 16.1793C4.47801 17.4775 5.21986 18.5285 6.33263 19.3939C7.4454 20.2594 8.68181 20.6304 10.1655 20.6304C7.7545 22.485 5.03439 23.4123 2.067 23.4123C1.44879 23.4123 0.954229 23.4123 0.521484 23.3505C3.48888 25.3287 6.82719 26.256 10.4746 26.256C14.2457 26.256 17.584 25.3287 20.5514 23.3505C23.2097 21.6195 25.3116 19.3321 26.7953 16.3647C28.2171 13.6446 28.959 10.739 28.959 7.77166C28.959 7.40073 28.8972 7.15345 28.8972 6.96799Z" fill="white"/>
</svg>
